<svg width="28" height="28" viewBox="0 0 28 28" fill="none" xmlns="http://www.w3.org/2000/svg">
<path d="M26.6023 14.2903C26.6023 13.4337 26.5315 12.5726 26.3803 11.73H14.255V16.582H21.1986C20.9105 18.1469 19.9847 19.5312 18.629 20.4109V23.5591H22.7715C25.2042 21.3646 26.6023 18.1237 26.6023 14.2903Z" fill="#4285F4"/>
<path d="M14.255 26.6008C17.7221 26.6008 20.6459 25.4851 22.7762 23.5591L18.6337 20.4108C17.4812 21.1794 15.9933 21.6146 14.2597 21.6146C10.906 21.6146 8.06248 19.3969 7.0422 16.4153H2.76741V19.6608C4.94968 23.9156 9.39451 26.6008 14.255 26.6008Z" fill="#34A853"/>
<path d="M7.03753 16.4153C6.49905 14.8504 6.49905 13.1559 7.03753 11.5911V8.34558H2.76746C0.944181 11.9059 0.944181 16.1005 2.76746 19.6608L7.03753 16.4153Z" fill="#FBBC04"/>
<path d="M14.255 6.38717C16.0877 6.35939 17.8591 7.03534 19.1864 8.27613L22.8565 4.67877C20.5326 2.5398 17.4481 1.36384 14.255 1.40087C9.39451 1.40087 4.94968 4.08616 2.76741 8.34558L7.03747 11.5911C8.05303 8.60484 10.9013 6.38717 14.255 6.38717Z" fill="#EA4335"/>
</svg>
